<svg width="15" height="14" viewBox="0 0 15 14" fill="none" xmlns="http://www.w3.org/2000/svg">
    <path fill-rule="evenodd" clip-rule="evenodd" d="M.5 7a7 7 0 1 1 14.001.001A7 7 0 0 1 .5 7zm1 0c0 3.309 2.691 6 6 6s6-2.691 6-6-2.691-6-6-6-6 2.691-6 6zm6.792 3.29a.75.75 0 1 1-1.5 0 .75.75 0 0 1 1.5 0zm-1.5-6.525a.75.75 0 1 1 1.5 0v4.493a.75.75 0 1 1-1.5 0V3.765z" fill="#FF5A00"/>
    <mask id="hpe5akgv5a" style="mask-type:alpha" maskUnits="userSpaceOnUse" x="0" y="0" width="15" height="14">
        <path fill-rule="evenodd" clip-rule="evenodd" d="M.5 7a7 7 0 1 1 14.001.001A7 7 0 0 1 .5 7zm1 0c0 3.309 2.691 6 6 6s6-2.691 6-6-2.691-6-6-6-6 2.691-6 6zm6.792 3.29a.75.75 0 1 1-1.5 0 .75.75 0 0 1 1.5 0zm-1.5-6.525a.75.75 0 1 1 1.5 0v4.493a.75.75 0 1 1-1.5 0V3.765z" fill="#fff"/>
    </mask>
</svg>
